<svg height='100px' width='100px'  fill="#15a98c" xmlns="http://www.w3.org/2000/svg" data-name="Camada 1" viewBox="0 0 90 59.88" x="0px" y="0px"><title>icones</title><path d="M21.84,13.08.78,28.65a1.91,1.91,0,0,0,0,3.08L21.16,46.8a1.92,1.92,0,0,0,2.28-3.08L5.14,30.19l19-14a1.92,1.92,0,1,0-2.28-3.08Z"></path><path d="M89.22,28.15,68.84,13.08a1.92,1.92,0,0,0-2.28,3.08l18.3,13.53-19,14a1.92,1.92,0,1,0,2.28,3.08L89.22,31.23a1.91,1.91,0,0,0,0-3.08Z"></path><path d="M56.08.13a1.91,1.91,0,0,0-2.47,1.1L32.17,57.28a1.93,1.93,0,0,0,1.11,2.48,2,2,0,0,0,.68.12,1.92,1.92,0,0,0,1.79-1.23l21.44-56A1.91,1.91,0,0,0,56.08.13Z"></path></svg>